<mxfile modified="2023-05-16T05:58:19.021Z" host="app.diagrams.net" agent="Mozilla/5.0 (Windows NT 10.0; Win64; x64) AppleWebKit/537.36 (KHTML, like Gecko) Chrome/113.0.0.0 Safari/537.36" etag="0iLRBVTgW83KtEwwJcNI" version="21.3.2" type="github">
  <diagram id="Ht1M8jgEwFfnCIfOTk4-" name="Page-1">
    <mxGraphModel dx="2074" dy="1124" grid="1" gridSize="10" guides="1" tooltips="1" connect="1" arrows="1" fold="1" page="1" pageScale="1" pageWidth="1169" pageHeight="827" math="0" shadow="0">
      <root>
        <mxCell id="0" />
        <mxCell id="1" parent="0" />
        <mxCell id="UEzPUAAOIrF-is8g5C7q-110" value="smartphone" style="outlineConnect=0;gradientColor=none;strokeColor=none;fillColor=#879196;dashed=0;verticalLabelPosition=bottom;verticalAlign=top;align=center;aspect=fixed;shape=mxgraph.aws4.illustration_notification;pointerEvents=1;html=1;" parent="1" vertex="1">
          <mxGeometry x="190" y="458.5" width="100" height="81" as="geometry" />
        </mxCell>
        <mxCell id="zIMmFSb7Lxd9RM5DNyht-9" value="AWS Cloud" style="points=[[0,0],[0.25,0],[0.5,0],[0.75,0],[1,0],[1,0.25],[1,0.5],[1,0.75],[1,1],[0.75,1],[0.5,1],[0.25,1],[0,1],[0,0.75],[0,0.5],[0,0.25]];outlineConnect=0;html=1;whiteSpace=wrap;fontSize=12;fontStyle=0;container=1;pointerEvents=0;collapsible=0;recursiveResize=0;shape=mxgraph.aws4.group;grIcon=mxgraph.aws4.group_aws_cloud_alt;strokeColor=#000000;fillColor=#f5f5f5;verticalAlign=top;align=left;spacingLeft=30;fontColor=#333333;dashed=0;" parent="1" vertex="1">
          <mxGeometry x="370" y="250" width="490" height="350" as="geometry" />
        </mxCell>
        <mxCell id="ezK5SAh-a4AVFmMbbINS-12" value="" style="edgeStyle=orthogonalEdgeStyle;rounded=0;orthogonalLoop=1;jettySize=auto;html=1;" edge="1" parent="zIMmFSb7Lxd9RM5DNyht-9" target="UEzPUAAOIrF-is8g5C7q-114">
          <mxGeometry relative="1" as="geometry">
            <mxPoint x="220" y="85" as="sourcePoint" />
          </mxGeometry>
        </mxCell>
        <mxCell id="UEzPUAAOIrF-is8g5C7q-113" value="Lambda" style="outlineConnect=0;fontColor=#232F3E;gradientColor=#F78E04;gradientDirection=north;fillColor=#D05C17;strokeColor=#ffffff;dashed=0;verticalLabelPosition=bottom;verticalAlign=top;align=center;html=1;fontSize=12;fontStyle=0;aspect=fixed;shape=mxgraph.aws4.resourceIcon;resIcon=mxgraph.aws4.lambda;labelBackgroundColor=#ffffff;spacingTop=3;" parent="zIMmFSb7Lxd9RM5DNyht-9" vertex="1">
          <mxGeometry x="226" y="45" width="78" height="78" as="geometry" />
        </mxCell>
        <mxCell id="zIMmFSb7Lxd9RM5DNyht-6" value="" style="edgeStyle=orthogonalEdgeStyle;rounded=0;orthogonalLoop=1;jettySize=auto;html=1;" parent="zIMmFSb7Lxd9RM5DNyht-9" source="UEzPUAAOIrF-is8g5C7q-114" target="UEzPUAAOIrF-is8g5C7q-113" edge="1">
          <mxGeometry relative="1" as="geometry" />
        </mxCell>
        <mxCell id="ezK5SAh-a4AVFmMbbINS-10" value="" style="edgeStyle=orthogonalEdgeStyle;rounded=0;orthogonalLoop=1;jettySize=auto;html=1;" edge="1" parent="zIMmFSb7Lxd9RM5DNyht-9" source="UEzPUAAOIrF-is8g5C7q-114" target="ezK5SAh-a4AVFmMbbINS-5">
          <mxGeometry relative="1" as="geometry" />
        </mxCell>
        <mxCell id="UEzPUAAOIrF-is8g5C7q-119" value="Amazon&lt;br&gt;DynamoDB&lt;br&gt;" style="outlineConnect=0;fontColor=#232F3E;gradientColor=#4D72F3;gradientDirection=north;fillColor=#3334B9;strokeColor=#ffffff;dashed=0;verticalLabelPosition=bottom;verticalAlign=top;align=center;html=1;fontSize=12;fontStyle=0;aspect=fixed;shape=mxgraph.aws4.resourceIcon;resIcon=mxgraph.aws4.dynamodb;labelBackgroundColor=#ffffff;spacingTop=5;" parent="zIMmFSb7Lxd9RM5DNyht-9" vertex="1">
          <mxGeometry x="370.0000000000002" y="45" width="78" height="78" as="geometry" />
        </mxCell>
        <mxCell id="zIMmFSb7Lxd9RM5DNyht-7" value="" style="endArrow=classic;html=1;rounded=0;" parent="zIMmFSb7Lxd9RM5DNyht-9" source="UEzPUAAOIrF-is8g5C7q-113" target="UEzPUAAOIrF-is8g5C7q-119" edge="1">
          <mxGeometry width="50" height="50" relative="1" as="geometry">
            <mxPoint x="310" y="88" as="sourcePoint" />
            <mxPoint x="290" y="-32" as="targetPoint" />
          </mxGeometry>
        </mxCell>
        <mxCell id="ezK5SAh-a4AVFmMbbINS-7" value="" style="group" vertex="1" connectable="0" parent="zIMmFSb7Lxd9RM5DNyht-9">
          <mxGeometry x="70" y="180" width="79" height="112" as="geometry" />
        </mxCell>
        <mxCell id="ezK5SAh-a4AVFmMbbINS-5" value="" style="sketch=0;points=[[0,0,0],[0.25,0,0],[0.5,0,0],[0.75,0,0],[1,0,0],[0,1,0],[0.25,1,0],[0.5,1,0],[0.75,1,0],[1,1,0],[0,0.25,0],[0,0.5,0],[0,0.75,0],[1,0.25,0],[1,0.5,0],[1,0.75,0]];outlineConnect=0;fontColor=#232F3E;gradientColor=#945DF2;gradientDirection=north;fillColor=#5A30B5;strokeColor=#ffffff;dashed=0;verticalLabelPosition=bottom;verticalAlign=top;align=center;html=1;fontSize=12;fontStyle=0;aspect=fixed;shape=mxgraph.aws4.resourceIcon;resIcon=mxgraph.aws4.cloudfront;" vertex="1" parent="ezK5SAh-a4AVFmMbbINS-7">
          <mxGeometry y="25" width="78" height="78" as="geometry" />
        </mxCell>
        <mxCell id="ezK5SAh-a4AVFmMbbINS-4" value="" style="group" vertex="1" connectable="0" parent="zIMmFSb7Lxd9RM5DNyht-9">
          <mxGeometry x="226" y="180" width="78" height="112" as="geometry" />
        </mxCell>
        <mxCell id="ezK5SAh-a4AVFmMbbINS-2" value="" style="sketch=0;points=[[0,0,0],[0.25,0,0],[0.5,0,0],[0.75,0,0],[1,0,0],[0,1,0],[0.25,1,0],[0.5,1,0],[0.75,1,0],[1,1,0],[0,0.25,0],[0,0.5,0],[0,0.75,0],[1,0.25,0],[1,0.5,0],[1,0.75,0]];outlineConnect=0;fontColor=#232F3E;gradientColor=#60A337;gradientDirection=north;fillColor=#277116;strokeColor=#ffffff;dashed=0;verticalLabelPosition=bottom;verticalAlign=top;align=center;html=1;fontSize=12;fontStyle=0;aspect=fixed;shape=mxgraph.aws4.resourceIcon;resIcon=mxgraph.aws4.s3;" vertex="1" parent="ezK5SAh-a4AVFmMbbINS-4">
          <mxGeometry y="25" width="78" height="78" as="geometry" />
        </mxCell>
        <mxCell id="ezK5SAh-a4AVFmMbbINS-8" style="edgeStyle=orthogonalEdgeStyle;rounded=0;orthogonalLoop=1;jettySize=auto;html=1;strokeColor=#000000;" edge="1" parent="ezK5SAh-a4AVFmMbbINS-4" source="ezK5SAh-a4AVFmMbbINS-5">
          <mxGeometry relative="1" as="geometry">
            <mxPoint x="-72" y="63.5" as="sourcePoint" />
            <mxPoint x="4" y="64" as="targetPoint" />
          </mxGeometry>
        </mxCell>
        <mxCell id="ezK5SAh-a4AVFmMbbINS-9" style="edgeStyle=orthogonalEdgeStyle;rounded=0;orthogonalLoop=1;jettySize=auto;html=1;strokeColor=#000000;exitX=0.5;exitY=0;exitDx=0;exitDy=0;exitPerimeter=0;" edge="1" parent="zIMmFSb7Lxd9RM5DNyht-9" source="ezK5SAh-a4AVFmMbbINS-2" target="UEzPUAAOIrF-is8g5C7q-114">
          <mxGeometry relative="1" as="geometry">
            <mxPoint x="158" y="254" as="sourcePoint" />
            <mxPoint x="150" y="85" as="targetPoint" />
          </mxGeometry>
        </mxCell>
        <mxCell id="UEzPUAAOIrF-is8g5C7q-114" value="Amazon API&lt;br&gt;Gateway&lt;br&gt;" style="outlineConnect=0;fontColor=#232F3E;gradientColor=#945DF2;gradientDirection=north;fillColor=#5A30B5;strokeColor=#ffffff;dashed=0;verticalLabelPosition=bottom;verticalAlign=top;align=center;html=1;fontSize=12;fontStyle=0;aspect=fixed;shape=mxgraph.aws4.resourceIcon;resIcon=mxgraph.aws4.api_gateway;labelBackgroundColor=#ffffff;" parent="zIMmFSb7Lxd9RM5DNyht-9" vertex="1">
          <mxGeometry x="70" y="45" width="78" height="78" as="geometry" />
        </mxCell>
        <mxCell id="ezK5SAh-a4AVFmMbbINS-11" style="edgeStyle=orthogonalEdgeStyle;rounded=0;orthogonalLoop=1;jettySize=auto;html=1;strokeColor=#000000;" edge="1" parent="zIMmFSb7Lxd9RM5DNyht-9" source="UEzPUAAOIrF-is8g5C7q-114">
          <mxGeometry relative="1" as="geometry">
            <mxPoint x="158" y="83.5" as="sourcePoint" />
            <mxPoint x="230" y="84" as="targetPoint" />
          </mxGeometry>
        </mxCell>
        <mxCell id="ezK5SAh-a4AVFmMbbINS-13" style="edgeStyle=orthogonalEdgeStyle;rounded=0;orthogonalLoop=1;jettySize=auto;html=1;strokeColor=#000000;" edge="1" parent="zIMmFSb7Lxd9RM5DNyht-9" source="UEzPUAAOIrF-is8g5C7q-113" target="UEzPUAAOIrF-is8g5C7q-119">
          <mxGeometry relative="1" as="geometry">
            <mxPoint x="310" y="85" as="sourcePoint" />
            <mxPoint x="240" y="94" as="targetPoint" />
          </mxGeometry>
        </mxCell>
        <mxCell id="ezK5SAh-a4AVFmMbbINS-6" value="&lt;font color=&quot;#000000&quot;&gt;cloudfront&lt;br&gt;&lt;/font&gt;" style="text;html=1;align=center;verticalAlign=middle;resizable=0;points=[];autosize=1;strokeColor=none;fillColor=none;labelBackgroundColor=#ffffff;container=1;" vertex="1" parent="zIMmFSb7Lxd9RM5DNyht-9">
          <mxGeometry x="70" y="280" width="80" height="30" as="geometry" />
        </mxCell>
        <mxCell id="ezK5SAh-a4AVFmMbbINS-3" value="&lt;font color=&quot;#000000&quot;&gt;S3&lt;/font&gt;" style="text;html=1;align=center;verticalAlign=middle;resizable=0;points=[];autosize=1;strokeColor=none;fillColor=none;labelBackgroundColor=#ffffff;container=1;" vertex="1" parent="zIMmFSb7Lxd9RM5DNyht-9">
          <mxGeometry x="246" y="280" width="40" height="30" as="geometry" />
        </mxCell>
        <mxCell id="zIMmFSb7Lxd9RM5DNyht-3" style="edgeStyle=orthogonalEdgeStyle;rounded=0;orthogonalLoop=1;jettySize=auto;html=1;entryX=0;entryY=0.5;entryDx=0;entryDy=0;entryPerimeter=0;strokeColor=#000000;" parent="1" source="UEzPUAAOIrF-is8g5C7q-110" target="ezK5SAh-a4AVFmMbbINS-5" edge="1">
          <mxGeometry relative="1" as="geometry">
            <mxPoint x="290" y="460" as="targetPoint" />
          </mxGeometry>
        </mxCell>
      </root>
    </mxGraphModel>
  </diagram>
</mxfile>
